<svg id="Layer_1" data-name="Layer 1" xmlns="http://www.w3.org/2000/svg" viewBox="0 0 382.56 352.75"><defs><style>.cls-1{fill:#fff;}.cls-2{fill:#fbb03b;}</style></defs><rect class="cls-1" x="174.44" y="241.83" width="99.06" height="110.92" rx="5"/><path class="cls-1" d="M288.5,241.83h89.06a5,5,0,0,1,5,5v45.92a60,60,0,0,1-60,60H288.5a5,5,0,0,1-5-5V246.83A5,5,0,0,1,288.5,241.83Z"/><rect class="cls-1" x="64.06" y="120.92" width="99.06" height="110.92" rx="5"/><path class="cls-1" d="M86.06,0h17.06a60,60,0,0,1,60,60v45.92a5,5,0,0,1-5,5H69.06a5,5,0,0,1-5-5V22a22,22,0,0,1,22-22Z"/><path class="cls-1" d="M69.06,241.83h89.06a5,5,0,0,1,5,5V347.75a5,5,0,0,1-5,5H124.06a60,60,0,0,1-60-60V246.83a5,5,0,0,1,5-5Z"/><path class="cls-2" d="M103.75,104.1,59.87,157.2a5,5,0,0,0,3.86,8.18H107.6a5,5,0,0,0,5-5v-53.1A5,5,0,0,0,103.75,104.1Z" transform="translate(-58.72 -73.63)"/><circle cx="97.89" cy="44.75" r="11"/></svg>